<svg xmlns="http://www.w3.org/2000/svg" width="29" height="29" viewBox="0 0 29 29" fill="none">
  <title>hyacker ロゴ</title>
  <path d="M18.145 0.5C16.0725 0.5 14.5075 1.64199 14.1692 3.16465H14.0846C13.6616 1.72659 12.0544 0.5 10.1087 0.5H0V21.2674V22.7477C0 24.3127 1.60725 25.9622 3.89123 25.9622H9.60119C11.293 25.9622 13.0272 26.9773 13.0695 28.5H15.142C15.1843 26.935 16.8338 25.9622 18.6525 25.9622H24.3625C26.5619 25.9622 28.2537 24.3973 28.2537 22.5786V21.2251V0.5H18.145ZM15.7341 3.84139H17.9335L12.139 19.0257H9.93956L15.7341 3.84139ZM26.4773 22.071C26.4773 23.1284 25.4622 23.5514 23.8972 23.5514H18.145C16.0725 23.5514 14.5075 24.6934 14.1692 26.216H14.0846C13.6616 24.7779 12.0544 23.5514 10.1087 23.5514H4.35649C2.79154 23.5514 1.81873 23.0438 1.81873 22.071V21.2674H10.1087C12.0544 21.2674 13.6616 22.494 14.0846 23.932H14.1692C14.5075 22.4094 16.0725 21.2674 18.145 21.2674H26.4773V22.071Z" fill="black"/>
</svg>
